<?xml version="1.0" encoding="utf-8"?>
<svg version="1.0" width="650px" height="650px" preserveAspectRatio="xMidYMid meet" xmlns="http://www.w3.org/2000/svg">
  <g transform="matrix(0.098853, 0, 0, -0.100366, -202.648669, 808.794812)" fill="#000000" stroke="none">
    <path d="M3998 8006 c-233 -106 -593 -323 -721 -437 l-47 -41 0 -1027 c0 -1164 -9 -1052 85 -1066 168 -24 470 -127 678 -232 89 -44 303 -175 518 -316 328 -215 401 -259 552 -337 179 -93 320 -148 484 -189 219 -55 407 -71 598 -52 117 12 283 44 317 62 21 11 32 44 21 64 -5 8 -65 66 -134 128 -69 61 -274 247 -455 411 -181 165 -372 338 -424 385 -119 106 -120 108 -120 149 0 33 46 81 733 771 402 405 794 797 869 871 139 137 163 172 153 220 -10 44 -114 131 -417 348 -150 108 -180 124 -211 117 -13 -4 -517 -500 -1138 -1121 -631 -631 -1122 -1114 -1131 -1114 -17 0 -18 64 -18 1218 0 934 -3 1221 -12 1230 -21 21 -60 12 -180 -42z"/>
    <path d="M8073 5382 c-6 -4 -34 -47 -62 -96 -133 -229 -300 -443 -502 -642 -155 -152 -185 -179 -294 -261 -299 -225 -590 -360 -930 -430 -115 -23 -152 -26 -320 -26 -207 1 -346 19 -520 69 -328 93 -530 196 -1081 550 -291 187 -435 271 -585 343 -449 216 -883 254 -1307 115 -118 -38 -205 -79 -334 -154 -81 -48 -88 -54 -88 -83 0 -110 91 -524 117 -534 8 -3 71 22 141 55 320 154 630 201 962 146 245 -41 548 -167 820 -343 69 -44 202 -129 295 -188 94 -58 217 -137 275 -173 374 -238 735 -382 1080 -431 109 -15 371 -15 477 0 479 69 919 310 1323 727 178 184 351 407 440 569 18 33 43 71 56 85 34 38 65 251 80 553 6 114 5 140 -7 148 -17 11 -21 11 -36 1z"/>
    <path d="M2795 4024 c-150 -25 -387 -106 -457 -155 -26 -19 -27 -21 -13 -58 36 -104 318 -541 348 -541 5 0 49 13 98 30 192 64 374 87 554 71 149 -14 241 -33 375 -76 239 -76 410 -170 987 -541 259 -167 401 -245 581 -318 360 -148 744 -166 1088 -51 264 88 576 286 826 524 266 254 433 492 616 879 64 134 85 202 63 202 -6 0 -43 -44 -82 -97 -288 -392 -638 -690 -982 -837 -293 -125 -542 -173 -855 -163 -233 7 -394 39 -622 124 -248 93 -473 220 -1045 590 -393 254 -634 359 -953 414 -136 23 -401 25 -527 3z"/>
    <path d="M3160 2965 c-105 -19 -154 -37 -158 -57 -5 -25 105 -119 309 -266 242 -173 617 -358 896 -441 137 -40 373 -87 533 -106 153 -17 422 -20 555 -5 168 19 185 30 78 50 -217 41 -475 165 -854 412 -342 223 -538 318 -788 383 -167 43 -424 56 -571 30z"/>
  </g>
</svg>